<svg width="16" height="20" viewBox="0 0 16 20" fill="none" xmlns="http://www.w3.org/2000/svg"><path d="m4.864.48-.859.258A4.2 4.2 0 0 0 1.06 4.163c-.356 2.482.44 5.383 2.362 8.711 1.916 3.32 4.026 5.458 6.348 6.394a4.2 4.2 0 0 0 4.458-.846l.652-.617a2.4 2.4 0 0 0 .295-3.148l-1.627-2.256a1.8 1.8 0 0 0-1.987-.667l-2.46.752-.064.012c-.272.04-.897-.547-1.677-1.898-.816-1.414-.986-2.24-.76-2.454L7.85 6.978a2.996 2.996 0 0 0 .69-3.42l-.793-1.765A2.4 2.4 0 0 0 4.866.48h-.002Zm1.788 1.805.794 1.765a1.796 1.796 0 0 1-.413 2.052l-1.255 1.17c-.804.759-.538 2.058.54 3.928 1.017 1.76 1.944 2.628 2.938 2.477l.15-.031 2.505-.765a.6.6 0 0 1 .662.222L14.2 15.36a1.2 1.2 0 0 1-.147 1.575l-.652.616a3 3 0 0 1-3.183.604c-2.038-.82-3.964-2.773-5.758-5.88-1.798-3.114-2.525-5.762-2.213-7.94a3 3 0 0 1 2.105-2.447l.86-.26a1.2 1.2 0 0 1 1.44.658Z" fill="#fff"/></svg>